<?xml version="1.0" standalone="no"?>
<!DOCTYPE svg PUBLIC "-//W3C//DTD SVG 20010904//EN"
 "http://www.w3.org/TR/2001/REC-SVG-20010904/DTD/svg10.dtd">
<svg version="1.0" xmlns="http://www.w3.org/2000/svg"
 width="729.000000pt" height="121.000000pt" viewBox="0 0 729.000000 121.000000"
 preserveAspectRatio="xMidYMid meet">

<g transform="translate(0.000000,121.000000) scale(0.100000,-0.100000)"
fill="#000000" stroke="none">
<path d="M129 1021 l-29 -29 0 -377 0 -377 29 -29 29 -29 492 0 492 0 29 29
29 29 0 377 0 377 -29 29 -29 29 -492 0 -492 0 -29 -29z m825 -355 c50 -169
73 -263 67 -270 -6 -7 -11 -36 -13 -66 l-3 -55 -85 0 -85 0 -1 66 c-1 45 -15
112 -45 213 l-43 146 -156 -155 c-149 -149 -157 -155 -196 -155 -22 0 -43 3
-47 6 -3 4 112 127 256 275 144 147 265 265 269 261 4 -4 41 -124 82 -266z
m-266 151 l22 -23 -35 -34 -35 -34 -24 23 -25 23 27 34 c32 40 41 42 70 11z
m-138 -186 l-53 -61 -29 27 -28 27 57 58 57 58 25 -24 24 -24 -53 -61z m174
-68 c5 -36 15 -56 42 -84 42 -43 33 -55 -25 -32 -37 15 -44 15 -81 0 -53 -20
-61 -5 -21 37 20 21 34 47 38 72 6 41 20 67 33 59 4 -2 10 -26 14 -52z m-458
-214 c68 -61 124 -116 124 -121 0 -5 -56 -7 -127 -6 l-128 3 -3 118 c-1 64 0
117 4 117 3 0 62 -50 130 -111z"/>
</g>
</svg>
